<svg width="16" height="16" viewBox="0 0 16 16" fill="none" xmlns="http://www.w3.org/2000/svg">
<path d="M8.58523 15.3523C7.37689 15.3523 6.30114 15.1875 5.35795 14.858C4.41477 14.5322 3.61742 14.053 2.96591 13.4205C2.31439 12.7917 1.81818 12.0227 1.47727 11.1136C1.13636 10.2045 0.965909 9.17045 0.965909 8.01136C0.965909 6.86742 1.13636 5.82955 1.47727 4.89773C1.82197 3.96591 2.32386 3.16667 2.98295 2.5C3.64205 1.82955 4.44697 1.31439 5.39773 0.954545C6.35227 0.594696 7.43939 0.414772 8.65909 0.414772C9.78788 0.414772 10.7955 0.579545 11.6818 0.909091C12.572 1.23864 13.3258 1.70833 13.9432 2.31818C14.5644 2.92424 15.036 3.64583 15.358 4.48295C15.6837 5.31629 15.8447 6.23864 15.8409 7.25C15.8447 7.94697 15.7841 8.58712 15.6591 9.17045C15.5341 9.75379 15.3371 10.2633 15.0682 10.6989C14.803 11.1307 14.4545 11.4735 14.0227 11.7273C13.5909 11.9773 13.0682 12.1193 12.4545 12.1534C12.0152 12.1875 11.6591 12.1553 11.3864 12.0568C11.1136 11.9583 10.9053 11.8125 10.7614 11.6193C10.6212 11.4223 10.5303 11.1932 10.4886 10.9318H10.4205C10.3295 11.1591 10.1515 11.3655 9.88636 11.5511C9.62121 11.733 9.29735 11.875 8.91477 11.9773C8.53598 12.0758 8.13258 12.1117 7.70455 12.0852C7.25758 12.0587 6.83333 11.9545 6.43182 11.7727C6.03409 11.5909 5.67992 11.3277 5.36932 10.983C5.0625 10.6383 4.82008 10.2121 4.64205 9.70455C4.4678 9.19697 4.37879 8.60985 4.375 7.94318C4.37879 7.28409 4.47159 6.71023 4.65341 6.22159C4.83902 5.73295 5.08333 5.32197 5.38636 4.98864C5.69318 4.6553 6.03409 4.39394 6.40909 4.20455C6.78409 4.01515 7.16098 3.89394 7.53977 3.84091C7.9678 3.77652 8.37311 3.77652 8.75568 3.84091C9.13826 3.9053 9.46023 4.00947 9.72159 4.15341C9.98674 4.29735 10.1515 4.45265 10.2159 4.61932H10.2955V3.98295H12.0739V9.52841C12.0777 9.78977 12.1364 9.99242 12.25 10.1364C12.3636 10.2803 12.517 10.3523 12.7102 10.3523C12.9716 10.3523 13.1894 10.2367 13.3636 10.0057C13.5417 9.77462 13.6742 9.42045 13.7614 8.94318C13.8523 8.46591 13.8977 7.85795 13.8977 7.11932C13.8977 6.4072 13.803 5.7822 13.6136 5.24432C13.428 4.70265 13.1667 4.24242 12.8295 3.86364C12.4962 3.48106 12.108 3.17045 11.6648 2.93182C11.2216 2.69318 10.7405 2.51894 10.2216 2.40909C9.70644 2.29924 9.17614 2.24432 8.63068 2.24432C7.6875 2.24432 6.86364 2.38826 6.15909 2.67614C5.45455 2.96023 4.86742 3.35985 4.39773 3.875C3.92803 4.39015 3.57576 4.99432 3.34091 5.6875C3.10985 6.37689 2.99242 7.12879 2.98864 7.94318C2.99242 8.84091 3.11742 9.63636 3.36364 10.3295C3.61364 11.0189 3.98106 11.5985 4.46591 12.0682C4.95076 12.5379 5.54924 12.8939 6.26136 13.1364C6.97348 13.3788 7.79167 13.5 8.71591 13.5C9.15152 13.5 9.57765 13.4678 9.99432 13.4034C10.411 13.3428 10.7879 13.267 11.125 13.1761C11.4621 13.089 11.733 13.0038 11.9375 12.9205L12.5 14.5682C12.2614 14.7045 11.9375 14.8314 11.5284 14.9489C11.1231 15.0701 10.6648 15.1667 10.1534 15.2386C9.64583 15.3144 9.12311 15.3523 8.58523 15.3523ZM8.32386 10.2159C8.78599 10.2159 9.15341 10.1269 9.42614 9.94886C9.70265 9.77083 9.89962 9.50758 10.017 9.15909C10.1383 8.80682 10.1951 8.37311 10.1875 7.85795C10.1837 7.40341 10.125 7.01894 10.0114 6.70455C9.90152 6.38636 9.71023 6.14583 9.4375 5.98295C9.16856 5.81629 8.79356 5.73295 8.3125 5.73295C7.89205 5.73295 7.53409 5.82197 7.23864 6C6.94697 6.17803 6.72348 6.42803 6.56818 6.75C6.41667 7.06818 6.33902 7.44318 6.33523 7.875C6.33902 8.27652 6.40341 8.6572 6.52841 9.01705C6.65341 9.37311 6.85985 9.66288 7.14773 9.88636C7.43561 10.1061 7.82765 10.2159 8.32386 10.2159Z" fill="#30B38C"/>
</svg>
