<svg width="20" height="20" viewBox="0 0 20 20" fill="none" xmlns="http://www.w3.org/2000/svg">
<path d="M10.0002 12.9167C11.611 12.9167 12.9168 11.6108 12.9168 10C12.9168 8.38917 11.611 7.08333 10.0002 7.08333C8.38933 7.08333 7.0835 8.38917 7.0835 10C7.0835 11.6108 8.38933 12.9167 10.0002 12.9167Z" stroke="#FCFCF9" stroke-width="2" stroke-miterlimit="10" stroke-linecap="round" stroke-linejoin="round"/>
<path d="M17.5 10.4412C17.5 15.4167 15.8333 17.5 10 17.5C4.16667 17.5 2.5 15.8333 2.5 10C2.5 4.58333 4.16667 2.5 10 2.5C16.25 2.5 17.5 4.58333 17.5 10.4412Z" stroke="#FCFCF9" stroke-width="2" stroke-linecap="round" stroke-linejoin="round"/>
<path d="M13.7502 6.25C13.9803 6.25 14.1668 6.06345 14.1668 5.83333C14.1668 5.60321 13.9803 5.41667 13.7502 5.41667C13.52 5.41667 13.3335 5.60321 13.3335 5.83333C13.3335 6.06345 13.52 6.25 13.7502 6.25Z" fill="#FCFCF9" stroke="#FCFCF9" stroke-linecap="round" stroke-linejoin="round"/>
</svg>
