<svg width="20" height="20" viewBox="0 0 20 20" fill="none" xmlns="http://www.w3.org/2000/svg">
<path d="M11.1875 3.25095L12.5241 5.83756C12.6911 6.25475 13.1088 6.50507 13.5265 6.58851L16.3666 7.0057C17.4525 7.17258 17.8702 8.50761 17.1184 9.25856L15.0301 11.1777C14.6959 11.5114 14.5289 11.9286 14.6124 12.3458L15.1136 15.0993C15.2807 16.184 14.1947 17.0184 13.1923 16.5177L10.6028 15.1827C10.1851 15.0158 9.76745 15.0158 9.34979 15.1827L6.76025 16.5177C5.75785 17.0184 4.67192 16.184 4.83898 15.0993L5.34018 12.3458C5.42372 11.9286 5.25665 11.428 4.92252 11.1777L2.91772 9.17512C2.08238 8.42417 2.58358 7.08914 3.66952 6.92226L6.50965 6.50507C6.92732 6.42163 7.34498 6.17131 7.51205 5.83756L8.76505 3.25095C9.34979 2.24968 10.6863 2.24968 11.1875 3.25095Z" stroke="#7F8596" stroke-width="1.25" stroke-linecap="round" stroke-linejoin="round"/>
</svg>
