<svg width="20" height="20" viewBox="0 0 20 20" fill="none" xmlns="http://www.w3.org/2000/svg">
<path d="M15.9911 7.23696C15.9911 7.41488 15.9911 7.50384 15.9911 7.68176C15.9911 11.8629 12.8846 16.6667 7.20414 16.6667C5.51775 16.6667 3.83136 16.2219 2.5 15.2433C2.76627 15.2433 3.03254 15.3323 3.21006 15.3323C4.63018 15.3323 5.96154 14.8875 7.02663 13.9979C5.69527 13.9979 4.54142 13.1083 4.09763 11.7739C4.54142 11.7739 5.07396 11.7739 5.51775 11.596C4.09763 11.3291 3.03254 9.9947 3.03254 8.57135C3.47633 8.83823 3.92012 8.92719 4.45266 8.92719C3.1213 8.0376 2.67751 6.16945 3.47633 4.7461C5.07396 6.7032 7.38166 7.85968 9.86686 7.94864C9.60059 6.88112 9.95562 5.72465 10.7544 5.01297C11.997 3.8565 13.9497 3.8565 15.1036 5.19089C15.8136 5.01297 16.4349 4.83505 17.0562 4.39026C16.7899 5.10193 16.3462 5.72465 15.7249 6.16945C16.3462 6.08049 16.9675 5.90257 17.5 5.63569C17.0562 6.25841 16.5237 6.79216 15.9911 7.23696Z" stroke="#FCFCF9" stroke-width="2" stroke-linecap="round" stroke-linejoin="round"/>
</svg>
