<svg width="24" height="25" viewBox="0 0 24 25" fill="none" xmlns="http://www.w3.org/2000/svg">
<path d="M21 15.1192C21 20.7074 19 21.7074 12 21.7074C5 21.7074 3 20.7074 3 14.7074C3 8.7074 5 7.7074 12 7.7074C19 7.7074 21 8.7074 21 15.1192Z" stroke="#777E90" stroke-width="1.5" stroke-linecap="round" stroke-linejoin="round"/>
<path d="M11.5 7.7074C11.5 5.7074 11.5 4.92962 13.5 4.92962C15.5 4.92962 15.5 4.2074 15.5 2.7074" stroke="#777E90" stroke-width="1.5" stroke-linecap="round" stroke-linejoin="round"/>
<path d="M14 13.2074C14.2761 13.2074 14.5 12.9835 14.5 12.7074C14.5 12.4313 14.2761 12.2074 14 12.2074C13.7239 12.2074 13.5 12.4313 13.5 12.7074C13.5 12.9835 13.7239 13.2074 14 13.2074Z" fill="#777E90" stroke="#777E90" stroke-linecap="round" stroke-linejoin="round"/>
<path d="M17 17.2074C17.2761 17.2074 17.5 16.9835 17.5 16.7074C17.5 16.4313 17.2761 16.2074 17 16.2074C16.7239 16.2074 16.5 16.4313 16.5 16.7074C16.5 16.9835 16.7239 17.2074 17 17.2074Z" fill="#777E90" stroke="#777E90" stroke-linecap="round" stroke-linejoin="round"/>
<path d="M7 14.7074H11" stroke="#777E90" stroke-width="1.5" stroke-linecap="round" stroke-linejoin="round"/>
<path d="M9 16.7074L9 12.7074" stroke="#777E90" stroke-width="1.5" stroke-linecap="round" stroke-linejoin="round"/>
</svg>
