<svg width="178" height="32" viewBox="0 0 178 32" fill="none" xmlns="http://www.w3.org/2000/svg">
<g clip-path="url(#clip0_2_5261)">
<path d="M102.684 20.6583V21.9748H96.1016V10.0254H97.418V20.6583H102.684Z" fill="white"/>
<path d="M109.064 11.3418V15.2912H115.039V16.6077H109.064V20.6583H116.052V21.9748H107.748V10.0254H115.849V11.3418H109.064Z" fill="white"/>
<path d="M126.38 10.0254C129.823 10.0254 132.558 12.557 132.558 16.0001C132.558 19.4431 129.925 21.9748 126.38 21.9748H121.52V10.0254H126.38ZM122.836 20.6583H126.279C128.912 20.6583 131.039 18.633 131.039 16.0001C131.039 13.3672 128.912 11.3418 126.279 11.3418H122.836V20.6583Z" fill="white"/>
<path d="M147.85 16.1013V20.4557C146.635 21.3671 145.014 21.9747 143.394 21.9747C139.951 21.9747 137.217 19.3418 137.217 15.8988C137.217 12.4557 139.951 9.92407 143.495 9.92407C145.116 9.92407 146.736 10.5317 147.85 11.5443L147.04 12.557C146.027 11.6456 144.71 11.1393 143.394 11.1393C140.66 11.1393 138.533 13.2658 138.533 15.8988C138.533 18.5317 140.761 20.6582 143.495 20.6582C144.609 20.6582 145.723 20.2532 146.635 19.6456V16H147.85V16.1013Z" fill="white"/>
<path d="M155.443 11.3418V15.2912H161.418V16.6077H155.443V20.6583H162.431V21.9748H154.127V10.0254H162.228V11.3418H155.443Z" fill="white"/>
<path d="M173.164 18.1267C172.86 18.1267 172.658 18.1267 172.354 18.1267H169.215V21.8735H167.898V10.0254H172.455C175.392 10.0254 177.114 11.4431 177.114 14.076C177.114 16.1013 176.202 17.4178 174.481 17.9241L177.316 21.9748H175.797L173.164 18.1267ZM172.354 16.9115C174.481 16.9115 175.696 16.0001 175.696 14.076C175.696 12.2532 174.481 11.3418 172.354 11.3418H169.215V16.9115H172.354Z" fill="white"/>
<path d="M9.82278 11.2405L8.81013 13.4683C7.59494 12.6582 6.07595 12.2531 5.06329 12.2531C4.1519 12.2531 3.5443 12.5569 3.5443 13.2658C3.5443 15.4936 9.92405 14.2785 9.92405 18.5316C9.92405 20.8607 7.89873 22.1772 5.26582 22.1772C3.34177 22.1772 1.31646 21.4683 0 20.2531L1.11392 18.0253C2.32911 19.1392 4.05063 19.8481 5.36709 19.8481C6.48101 19.8481 7.08861 19.443 7.08861 18.7342C7.08861 16.5063 0.708861 17.8228 0.708861 13.5696C0.708861 11.443 2.53165 10.0253 5.36709 10.0253C6.98734 9.92403 8.70886 10.4304 9.82278 11.2405Z" fill="white"/>
<path d="M20.3544 12.3543V21.9745H17.6202V12.3543H13.9746V10.0251H23.8987V12.3543H20.3544Z" fill="white"/>
<path d="M29.5694 19.6454L28.658 21.9745H25.9238L31.0884 10.0251H33.8226L38.8859 21.9745H36.0504L35.139 19.6454H29.5694ZM32.3036 12.8606L30.3795 17.5188H34.1264L32.3036 12.8606Z" fill="white"/>
<path d="M48.7083 18.5315H48.4045H45.8728V21.9745H43.1387V10.0251H48.3032C51.4425 10.0251 53.164 11.5441 53.164 14.177C53.164 15.9998 52.3539 17.3163 50.9361 18.0251L53.4678 21.9745H50.4298L48.7083 18.5315ZM48.5058 16.3036C50.0248 16.3036 50.8349 15.5948 50.8349 14.2783C50.8349 12.9619 50.0248 12.253 48.5058 12.253H45.9741V16.3036H48.5058Z" fill="white"/>
<path d="M79.8958 10.9365L74.7313 14.9872L69.668 10.9365L73.7186 15.9998L69.668 21.1644L74.7313 17.1137L79.8958 21.1644L75.8452 15.9998L79.8958 10.9365Z" fill="#CDAC5A"/>
<path d="M76.4533 14.2783L74.7318 5.77197L73.1115 14.2783L64.5039 15.9998L73.1115 17.7213L74.7318 26.2277L76.4533 17.7213L85.0609 15.9998L76.4533 14.2783Z" fill="#CDAC5A"/>
<path d="M74.7318 5.77197L73.1115 14.2783L64.5039 15.9998H74.7318V5.77197Z" fill="#EBCD81"/>
<path d="M74.7305 26.2276L76.452 17.7213L85.0596 15.9998H74.7305V26.2276Z" fill="#A5843F"/>
<path d="M76.3535 0C83.2396 0.911392 88.5054 7.29114 88.5054 13.6709C88.5054 14.2785 88.5054 14.7848 88.4041 15.2911V15.3924C88.5054 15.8987 88.7079 16.4051 88.8092 16.9114C88.9105 17.4177 89.0117 17.9241 89.0117 18.4304C88.9105 17.9241 88.7079 17.4177 88.5054 17.0127C88.4041 16.8101 88.3029 16.5063 88.2016 16.3038C87.9991 17.2152 87.7965 18.0253 87.4928 18.8354C87.4928 19.1392 87.594 19.443 87.594 19.7468C87.594 20.2532 87.594 20.7595 87.594 21.2658C87.594 21.7722 87.4928 22.2785 87.3915 22.7848C87.3915 22.2785 87.3915 21.7722 87.2902 21.2658C87.189 20.7595 87.0877 20.2532 86.9864 19.8481C86.5814 20.6582 86.075 21.4684 85.4674 22.2785C85.4674 22.481 85.4674 22.6835 85.4674 22.8861C85.4674 23.3924 85.3662 23.8987 85.2649 24.4051C85.1636 24.9114 85.0624 25.4177 84.8598 25.9241C84.6573 26.4304 84.556 26.9367 84.3535 27.3418C84.4548 26.8354 84.556 26.3291 84.6573 25.8228C84.7586 25.3165 84.7586 24.8101 84.7586 24.3038C84.7586 23.8987 84.7586 23.5949 84.7586 23.1899C84.3535 23.5949 83.9484 23.8987 83.5434 24.3038C82.1257 25.4177 81.7206 27.443 82.632 29.0633L82.7333 29.2658C81.3155 30.2785 78.8852 31.4937 76.3535 32C78.1763 32 80.8092 31.5949 83.2396 30.1772C88.1003 27.3418 91.2396 22.1772 91.2396 16.2025C91.2396 6.98734 84.9611 0.708861 76.3535 0Z" fill="#CDAC5A"/>
<path d="M66.8342 29.0633C67.7455 27.443 67.3405 25.519 65.9228 24.3038C65.5177 24 65.1126 23.5949 64.7076 23.1899C64.7076 23.5949 64.7076 23.8987 64.7076 24.3038C64.7076 24.8101 64.7076 25.3165 64.8088 25.8228C64.9101 26.3291 64.9101 26.8354 65.1126 27.3418C64.9101 26.9367 64.7076 26.4304 64.6063 25.9241C64.505 25.4177 64.3025 24.9114 64.2012 24.4051C64.1 23.8987 63.9987 23.3924 63.9987 22.8861C63.9987 22.6835 63.9987 22.481 63.9987 22.2785C63.3911 21.5696 62.8848 20.7595 62.4797 19.8481C62.3785 20.3544 62.2772 20.8608 62.1759 21.2658C62.0747 21.7722 62.0747 22.2785 62.0747 22.7848C61.9734 22.2785 61.9734 21.7722 61.8721 21.2658C61.8721 20.7595 61.8721 20.2532 61.8721 19.7468C61.8721 19.443 61.8721 19.1392 61.9734 18.8354C61.6696 18.0253 61.3658 17.2152 61.2645 16.3038C61.1633 16.5063 61.062 16.7089 60.9607 17.0127C60.7582 17.519 60.6569 17.9241 60.4544 18.4304C60.4544 17.9241 60.5557 17.4177 60.6569 16.9114C60.7582 16.4051 60.8595 15.8987 61.062 15.3924V15.2911C60.9607 14.7848 60.9607 14.1772 60.9607 13.6709C60.9607 7.29114 66.3278 0.911392 73.1126 0C64.6063 0.708861 58.2266 6.98734 58.2266 16.2025C58.2266 22.1772 61.4671 27.3418 66.2266 30.1772C68.6569 31.5949 71.2898 32 73.1126 32C70.581 31.4937 68.0493 30.2785 66.7329 29.2658L66.8342 29.0633Z" fill="#CDAC5A"/>
<path d="M89.9231 16.5063C89.9231 22.1772 87.2902 27.2405 83.3409 30.2785C88.1003 27.3418 91.2396 22.1772 91.2396 16.2025C91.2396 6.88608 84.8598 0.708861 76.3535 0C83.9484 0.911392 89.9231 7.89873 89.9231 16.5063Z" fill="#A5843F"/>
<path d="M66.2266 30.1772C62.2772 27.2405 59.6443 22.1772 59.6443 16.405C59.6443 7.89868 65.5177 0.810074 73.1126 -0.101318C64.6063 0.607542 58.2266 6.88602 58.2266 16.1012C58.2266 22.1772 61.4671 27.3417 66.2266 30.1772Z" fill="#A5843F"/>
</g>
<defs>
<clipPath id="clip0_2_5261">
<rect width="177.215" height="32" fill="white"/>
</clipPath>
</defs>
</svg>
